<?xml version="1.0" encoding="utf-8"?>
<!-- Generator: Adobe Illustrator 18.0.0, SVG Export Plug-In . SVG Version: 6.00 Build 0)  -->
<!DOCTYPE svg PUBLIC "-//W3C//DTD SVG 1.1//EN" "http://www.w3.org/Graphics/SVG/1.1/DTD/svg11.dtd">
<svg version="1.1" id="Layer-1" xmlns="http://www.w3.org/2000/svg" xmlns:xlink="http://www.w3.org/1999/xlink" x="0px" y="0px"
	 viewBox="0 0 289.2 121" enable-background="new 0 0 289.2 121" xml:space="preserve">
<g>
	<path fill="#8AB7AB" stroke="#8AB7AB" stroke-miterlimit="10" d="M94.1,56.4c9.5-14.2,18.2-26.2,27.3-35.4
		C106.2,15.7,87.6,5.5,65.5,5.9C40.4,6.2,34.3,30.4,35.4,41.3c0.4,3.5-6.9-1.8-6.7-5.9c1.2-23.8,17-34.2,37.2-34.8
		c26.9-0.8,44.3,9.2,61.1,15.1c8.1-7.1,16.6-11.8,26.5-13.6C175-2,180.7,15.7,161.9,23c-6.3,2.4-17,4.5-33.2,0.4
		c-10.1,9.8-19.8,22.8-27.1,33.2c6.9,0.4,12.5,0.8,14.2,1.2c2.4,0.8,0.6,6.1,0,5.9c-3.2-0.8-9.3-1.2-18.2-1.4l-1.4,2.2
		c-8.7,12.8-28.9,57.4-65.4,55.9C0.7,119-2.1,84.5,2,75.1c2.6-6.5,8.3-3.1,7.5-1.4c-4.7,9.8-2.6,40.7,23.7,41.5
		c25.5,0.6,47-38.4,56.7-52.5l0.2-0.4c-7.1,0-15.4,0.2-25.1,0.4c-3.2,0.8,0.4-4.9,3.6-5.7C71.6,56.2,83.1,56.2,94.1,56.4z
		 M154.8,19.6c15.2-2.2,16.6-14.2,1.8-13c-7.3,0.8-14.8,5.1-22.3,11.4C141,19.8,147.5,20.6,154.8,19.6z"/>
	<path fill="#8AB7AB" stroke="#8AB7AB" stroke-miterlimit="10" d="M115.1,112.9c4.9,0.4,11.9-2.9,27.1-15.9c2.2-2,1.8,3.9,1,4.9
		c-1,1-22.3,22.4-34.6,14c-6.5-4.3-3.8-14.9,4.7-26.6c6.9-9.8,10.7-14.8,12.1-15.7c1.6-1.2,5.1,2.8,3.2,5.3
		c-1.4,2.2-12.8,16.5-15.6,23.2C110,108.7,110.8,112.5,115.1,112.9z M138.6,58.8c-3.2-1.6-7.1,0-8.7,3.1c-1.4,2.8-1.2,6.7,1.8,7.7
		C138,71.7,144,61.1,138.6,58.8z"/>
	<path fill="#8AB7AB" stroke="#8AB7AB" stroke-miterlimit="10" d="M168.9,71.7c19-5.3,26.7,12.8,0.4,38.9
		c-21.9,21.8-39.9,3.5-23.9-19.1c3.8-5.3,8.9-9.6,12.1-12c0-0.2,0-0.6,0.2-0.8C158.4,76.7,164.5,72.9,168.9,71.7z M163.3,81.6
		c-24.1,19.7-18,33.2-10.7,32.8c4.3-0.4,9.5-3.1,16.6-11.4c20.6-24.4,8.9-33.2-5.9-23C163.7,80.6,163.7,81.2,163.3,81.6z"/>
	<path fill="#8AB7AB" stroke="#8AB7AB" stroke-miterlimit="10" d="M214.1,89.3c4.3-4.7,6.1-7.9,5.1-8.9c-1.2-1-6.3,1.6-10.9,1.8
		c-5.3,6.9-12.3,14.4-19.4,21c-1.4,1.2-2.6-3.9-1.8-4.5c6.3-5.1,12.3-12,16.6-17.3c-2.6-1.4-4.5-3.9-3.4-8.5
		c3-12.4,18.6-11.2,15-2.2c-1,2.4-2.4,4.7-4,7.3c2.4-0.6,5.1-1.6,6.7-2.2c8.7-3.1,14.4,0.8,5.9,10.4c-4.5,5.3-19.6,25.6-8.7,26.7
		c4.3,0.4,11.1-3.1,26.3-16.1c2.2-2,1.8,3.9,1,4.9c-1,1-17.8,17.3-27.5,16.9C202.7,118.4,200.3,105,214.1,89.3z M209.4,72.7
		c2-4.5-4.3-3.3-5.1,1.6c-0.4,2.2,0.2,3.3,1.6,3.9C207.6,75.7,209,73.7,209.4,72.7z"/>
	<path fill="#8AB7AB" stroke="#8AB7AB" stroke-miterlimit="10" d="M286.9,96.9c2.4-2,2,3.9,1,4.9c-0.8,1-16.6,16.1-29.3,17.9
		c-10.3,1.4-17-2.2-19.6-9.4c-3.2-7.9,1.2-18.9,10.7-27.3c22.5-19.9,37.6-11.4,21.3,7.1c-3.6,3.9-20.2,16.5-26.1,19.1
		c1.4,6.1,8.5,8.5,24.5,0.8C274.6,107.3,280.7,102.4,286.9,96.9z M263.3,89.6c14.2-13.4,7.3-16.7-6.9-4.5
		c-5.3,4.7-9.5,11.4-11.1,17.1C249.3,100.1,257.8,94.8,263.3,89.6z"/>
</g>
</svg>
