<svg id="Layer_1" data-name="Layer 1" xmlns="http://www.w3.org/2000/svg" viewBox="0 0 289.24 121"><defs><style>.cls-1{fill:#fff;stroke:#fff;stroke-miterlimit:10;}</style></defs><title>logo-light</title><path class="cls-1" d="M94.06,56.4c9.51-14.16,18.22-26.16,27.33-35.4C106.2,15.69,87.58,5.46,65.52,5.85c-25.1.39-31.17,24.59-30.16,35.4.41,3.54-6.88-1.77-6.68-5.9,1.21-23.8,17-34.22,37.24-34.81C92.84-.24,110.25,9.79,127,15.69c8.1-7.08,16.6-11.8,26.52-13.57C175-2,180.69,15.69,161.87,23c-6.28,2.36-17,4.52-33.2.39-10.12,9.83-19.84,22.82-27.12,33.24,6.88.39,12.55.79,14.17,1.18,2.43.79.61,6.1,0,5.9-3.24-.79-9.31-1.18-18.22-1.38l-1.42,2.16c-8.7,12.79-28.95,57.44-65.38,55.86C.74,119-2.09,84.53,2,75.09c2.63-6.49,8.3-3.15,7.49-1.38-4.65,9.83-2.63,40.71,23.68,41.5,25.5.59,47-38.36,56.68-52.52l.2-.39c-7.08,0-15.38.2-25.1.39-3.24.79.4-4.92,3.64-5.7C71.59,56.21,83.13,56.21,94.06,56.4Zm60.72-36.78c15.18-2.16,16.6-14.16,1.82-13-7.29.79-14.78,5.11-22.27,11.41A50.71,50.71,0,0,0,154.78,19.62Z"/><path class="cls-1" d="M115.1,112.86c4.86.39,11.94-2.95,27.12-15.93,2.23-2,1.82,3.93,1,4.92-1,1-22.27,22.42-34.61,14-6.48-4.33-3.85-14.95,4.66-26.56,6.88-9.83,10.73-14.75,12.15-15.74,1.62-1.18,5.06,2.76,3.24,5.31C127.24,81,115.91,95.35,113.07,102,110,108.73,110.84,112.46,115.1,112.86Zm23.48-54.09a6.66,6.66,0,0,0-8.7,3.15c-1.42,2.75-1.22,6.69,1.82,7.67C138,71.75,144,61.13,138.58,58.76Z"/><path class="cls-1" d="M168.94,71.75c19-5.31,26.72,12.78.41,38.95-21.86,21.83-39.88,3.54-23.88-19.08a57.69,57.69,0,0,1,12.14-12,1.16,1.16,0,0,1,.2-.79C158.41,76.66,164.48,72.93,168.94,71.75Zm-5.67,9.83c-24.09,19.67-18,33.24-10.73,32.85,4.25-.39,9.51-3.15,16.6-11.41,20.65-24.39,8.91-33.24-5.87-23A1.17,1.17,0,0,1,163.27,81.58Z"/><path class="cls-1" d="M214.07,89.25c4.25-4.72,6.07-7.87,5.06-8.85-1.22-1-6.28,1.57-10.93,1.77a186.27,186.27,0,0,1-19.43,21c-1.42,1.18-2.63-3.93-1.82-4.52a120.06,120.06,0,0,0,16.6-17.31c-2.63-1.38-4.45-3.93-3.44-8.46,3-12.39,18.62-11.21,15-2.17A53.06,53.06,0,0,1,211,78a65.4,65.4,0,0,0,6.68-2.16c8.71-3.15,14.37.79,5.87,10.43-4.45,5.31-19.63,25.57-8.7,26.75,4.25.39,11.13-3.15,26.31-16.13,2.23-2,1.82,3.93,1,4.92-1,1-17.81,17.31-27.53,16.92C202.73,118.36,200.31,105,214.07,89.25Zm-4.66-16.52c2-4.52-4.25-3.34-5.06,1.58-.4,2.16.2,3.34,1.62,3.93C207.59,75.68,209,73.71,209.41,72.73Z"/><path class="cls-1" d="M286.94,96.92c2.43-2,2,3.93,1,4.92-.81,1-16.6,16.13-29.35,17.9-10.32,1.38-17-2.16-19.63-9.44-3.24-7.87,1.22-18.88,10.73-27.34,22.47-19.87,37.65-11.41,21.25,7.08-3.64,3.93-20.24,16.52-26.11,19.08,1.42,6.1,8.5,8.46,24.49.79C274.59,107.35,280.66,102.43,286.94,96.92Zm-23.68-7.28c14.17-13.37,7.29-16.72-6.88-4.52-5.26,4.72-9.51,11.41-11.13,17.11C249.28,100.07,257.79,94.76,263.25,89.65Z"/></svg>