<?xml version="1.0" standalone="no"?>
<!DOCTYPE svg PUBLIC "-//W3C//DTD SVG 20010904//EN"
 "http://www.w3.org/TR/2001/REC-SVG-20010904/DTD/svg10.dtd">
<svg version="1.0" xmlns="http://www.w3.org/2000/svg"
 width="496.000000pt" height="169.000000pt" viewBox="0 0 496.000000 169.000000"
 preserveAspectRatio="xMidYMid meet">

<g transform="translate(0.000000,169.000000) scale(0.100000,-0.100000)"
fill="#000000" stroke="none">
<path d="M2091 1643 c-16 -27 -40 -66 -54 -88 -66 -109 -123 -240 -185 -426
-38 -115 -79 -220 -93 -239 -14 -19 -72 -98 -129 -175 -56 -77 -121 -161 -144
-187 -23 -25 -47 -53 -54 -62 -24 -30 -42 -19 -42 25 0 79 89 380 171 581 27
65 49 124 49 131 0 36 25 48 113 52 89 5 127 16 127 37 0 8 -28 9 -95 5 -63
-4 -95 -3 -95 4 0 22 91 198 120 230 16 19 35 47 41 62 16 38 1 52 -56 52 -52
0 -81 -23 -115 -93 -13 -26 -34 -61 -47 -78 -13 -17 -35 -60 -49 -95 -14 -35
-30 -69 -35 -75 -5 -6 -64 -14 -136 -18 -136 -7 -183 -14 -183 -26 0 -15 92
-21 191 -14 54 3 99 3 99 -1 0 -19 -95 -286 -125 -351 -32 -70 -134 -229 -174
-271 -35 -37 -51 -30 -51 21 0 65 35 227 59 274 26 52 26 72 0 101 -26 28 -64
22 -95 -16 -25 -29 -39 -25 -47 15 -3 15 -15 40 -27 55 -90 114 -290 -135
-290 -363 0 -87 25 -130 75 -130 29 0 43 9 86 53 28 28 58 66 66 82 24 46 85
136 89 132 3 -2 -3 -35 -12 -73 -22 -98 -16 -182 18 -227 44 -57 80 -55 141 8
19 20 50 61 68 91 33 53 56 72 44 35 -15 -48 -35 -161 -35 -201 0 -79 57 -140
116 -126 31 8 138 140 262 323 57 85 106 153 108 151 2 -2 -5 -40 -15 -84 -50
-208 -32 -346 51 -393 71 -41 166 36 315 254 49 72 155 273 160 304 11 61 -18
30 -97 -106 -113 -196 -166 -276 -234 -351 -36 -39 -79 -44 -97 -11 -18 34 -1
216 32 343 24 93 36 121 78 180 28 39 81 121 117 181 37 61 77 124 89 140 26
35 89 166 116 244 10 30 19 78 19 108 0 51 -1 53 -27 53 -26 0 -28 -3 -30 -43
-3 -86 -100 -301 -225 -503 -13 -21 -28 -48 -32 -59 -5 -13 -10 -15 -13 -8 -6
18 68 254 124 393 47 118 83 186 111 208 13 10 7 12 -36 12 -52 0 -53 -1 -81
-47z m-6 -60 c-13 -36 -77 -144 -82 -140 -4 5 52 122 69 145 15 17 21 15 13
-5z m-422 -231 c-56 -119 -84 -163 -42 -66 39 92 91 195 95 191 2 -2 -21 -59
-53 -125z m-121 -284 c-30 -75 -89 -249 -118 -343 -30 -100 -35 -110 -27 -60
14 92 148 473 162 460 2 -2 -6 -28 -17 -57z m-515 -88 l13 -65 -65 -95 c-88
-131 -109 -155 -124 -145 -38 23 61 331 116 364 34 20 46 8 60 -59z m760 -192
c-3 -8 -6 -5 -6 6 -1 11 2 17 5 13 3 -3 4 -12 1 -19z"/>
<path d="M804 1632 c-6 -4 -16 -17 -22 -28 -12 -23 -21 -25 -192 -49 -180 -25
-211 -32 -228 -49 -16 -16 -15 -19 12 -42 27 -24 34 -25 100 -20 86 7 135 14
147 21 4 3 24 8 44 10 40 6 45 -7 20 -56 -20 -37 -157 -406 -235 -632 -60
-172 -101 -257 -123 -257 -19 0 -69 56 -111 123 -20 31 -43 57 -51 57 -33 0
-8 -130 39 -201 28 -41 89 -79 129 -79 39 0 94 50 127 115 37 75 176 420 200
500 23 73 83 221 137 335 22 47 43 94 46 105 6 17 24 23 118 38 62 9 117 21
123 26 6 5 34 12 63 16 28 4 60 13 70 21 16 11 -3 13 -138 12 -147 -2 -158 0
-184 20 -27 22 -70 28 -91 14z m-66 -344 c-41 -89 -80 -174 -86 -188 l-12 -25
6 25 c7 32 71 207 87 240 23 48 69 121 74 116 2 -2 -29 -78 -69 -168z"/>
<path d="M3402 1608 c-42 -22 -158 -141 -196 -203 -11 -16 -27 -37 -35 -45
-39 -36 -93 -137 -149 -278 -43 -108 -46 -124 -47 -208 0 -88 1 -93 34 -142
71 -104 153 -111 241 -22 33 33 107 131 150 199 19 30 35 50 37 44 5 -13 -124
-393 -171 -508 -87 -210 -181 -355 -231 -355 -8 0 -22 11 -31 26 -15 22 -15
32 -4 81 15 69 85 208 145 287 24 33 42 62 40 64 -2 3 -36 -23 -74 -57 -173
-153 -231 -273 -182 -375 21 -43 67 -82 108 -91 10 -2 27 -7 38 -10 28 -8 77
22 119 73 41 50 174 309 205 400 12 35 47 125 78 200 61 150 109 277 125 332
6 19 23 61 39 92 16 32 29 64 29 72 0 24 -56 76 -82 76 -19 0 -33 -14 -64 -62
-53 -83 -226 -297 -302 -375 -95 -95 -159 -97 -150 -3 6 55 93 262 161 382 80
140 205 296 264 331 20 12 43 -10 43 -42 0 -41 -46 -157 -81 -206 -18 -25 -30
-48 -26 -51 14 -14 68 21 122 77 75 78 86 107 70 175 -16 69 -36 99 -85 124
-50 26 -84 25 -138 -2z m-218 -295 c-62 -94 -119 -200 -147 -272 -9 -25 -19
-42 -22 -39 -7 6 44 130 79 192 60 108 136 220 143 212 3 -2 -21 -44 -53 -93z
m365 -402 c-23 -61 -44 -109 -47 -107 -5 6 13 64 50 154 47 114 45 76 -3 -47z
m-113 -288 c-10 -10 -19 5 -10 18 6 11 8 11 12 0 2 -7 1 -15 -2 -18z"/>
<path d="M4777 1326 c-3 -8 -3 -23 0 -35 6 -23 -22 -105 -48 -138 -20 -27 -14
-77 8 -69 8 3 16 6 19 6 2 0 11 15 20 33 10 17 19 26 21 19 3 -6 9 -9 15 -6 6
4 5 9 -3 15 -11 6 -10 12 4 27 9 10 17 23 17 29 0 5 11 20 25 33 30 28 32 49
6 78 -21 25 -76 30 -84 8z"/>
<path d="M2310 950 l0 -370 55 0 55 0 0 370 0 370 -55 0 -55 0 0 -370z"/>
<path d="M4321 1156 c-94 -12 -121 -26 -121 -64 0 -19 41 -51 65 -52 20 0 133
30 169 45 16 7 17 5 8 -11 -19 -34 -117 -128 -176 -169 -102 -70 -123 -91
-110 -112 17 -28 37 -26 91 7 99 62 156 49 157 -36 l1 -48 -130 -72 c-71 -40
-176 -98 -233 -130 -161 -90 -218 -158 -202 -244 9 -51 34 -75 93 -91 54 -15
153 -6 201 16 89 42 184 145 263 285 50 86 57 75 13 -20 -42 -89 -3 -39 46 60
28 56 39 91 42 140 4 62 7 66 51 107 25 24 49 43 54 43 4 0 7 -12 7 -28 0 -47
65 -127 111 -137 41 -9 71 18 156 143 67 98 87 142 64 142 -11 0 -81 -90 -81
-104 0 -6 -26 -35 -57 -63 -59 -54 -98 -67 -110 -37 -8 21 24 127 59 193 35
68 35 76 -2 91 -58 24 -86 0 -117 -102 -7 -24 -113 -118 -134 -118 -4 0 -11 9
-14 21 -9 29 -83 79 -117 79 -15 0 -28 4 -28 8 0 10 98 104 173 166 117 97 63
124 -192 92z m59 -532 c0 -22 -81 -164 -125 -217 -102 -123 -216 -200 -288
-195 -36 3 -43 7 -52 31 -13 39 16 89 86 145 30 23 59 47 66 52 7 6 15 10 18
10 4 0 54 32 111 70 57 39 107 70 111 70 5 0 19 9 33 20 25 20 40 25 40 14z"/>
<path d="M3854 1121 c-76 -46 -162 -203 -178 -326 l-6 -40 12 35 c19 58 21 8
4 -79 -22 -110 -21 -122 19 -161 29 -28 44 -34 91 -38 41 -3 55 -2 50 7 -4 6
-1 11 6 11 17 0 60 45 116 120 23 30 61 82 86 115 109 145 109 146 98 157 -15
15 -29 3 -68 -56 -29 -45 -53 -77 -146 -200 -32 -41 -121 -106 -146 -106 -31
0 -37 38 -23 134 18 115 18 114 63 128 50 15 151 105 179 159 33 66 22 116
-31 144 -39 20 -89 19 -126 -4z m111 -40 c10 -31 -11 -99 -41 -134 -34 -39
-99 -89 -107 -81 -2 3 10 41 29 85 51 124 103 180 119 130z"/>
<path d="M3652 660 c0 -14 2 -19 5 -12 2 6 2 18 0 25 -3 6 -5 1 -5 -13z"/>
</g>
</svg>
