<?xml version="1.0" encoding="utf-8"?>
<!-- Generator: Adobe Illustrator 21.0.2, SVG Export Plug-In . SVG Version: 6.00 Build 0)  -->
<svg version="1.1" id="Layer-1" xmlns="http://www.w3.org/2000/svg" xmlns:xlink="http://www.w3.org/1999/xlink" x="0px" y="0px"
	 viewBox="0 0 41 64" style="enable-background:new 0 0 41 64;" xml:space="preserve">
<style type="text/css">
	.st0{fill:#8AB7AB;}
</style>
<path class="st0" d="M24.8,38.5c-2.1,4-4.3,7.2-4.3,7.2s-2.1-3.2-4.3-7.2S12,29.9,12,26.9c0-2.4,1-4.5,2.5-6c1.5-1.5,3.7-2.5,6-2.5
	s4.5,1,6,2.5c1.5,1.5,2.5,3.7,2.5,6C29,29.9,26.9,34.6,24.8,38.5z M25.3,22c-1.2-1.2-2.9-2-4.8-2c-1.9,0-3.6,0.8-4.8,2s-2,2.9-2,4.8
	c0,1.8,0.7,3.3,1.7,4.6c1.1,1.2,2.6,2,4.3,2.2c0.1,0,0.3,0,0.4,0c0.1,0,0.3,0,0.4,0s0.3,0,0.4,0c0.1,0,0.3,0,0.4,0
	c1.7-0.2,3.2-1,4.3-2.2c1.1-1.2,1.7-2.8,1.7-4.6C27.3,25,26.5,23.3,25.3,22z M20.5,30c-1.7,0-3.1-1.4-3.1-3.1c0-1.7,1.4-3.1,3.1-3.1
	c1.7,0,3.1,1.4,3.1,3.1C23.6,28.6,22.2,30,20.5,30z"/>
</svg>
